{
  "accessors": [
    {
      "bufferView": 2,
      "componentType": 5126,
      "count": 7076,
      "max": [
        514.9609985351563,
        17.099000930786133,
        -32.05419921875
      ],
      "min": [
        391.02099609375,
        -104.52300262451172,
        -91.5154037475586
      ],
      "type": "VEC3"
    },
    {
      "bufferView": 2,
      "byteOffset": 84912,
      "componentType": 5126,
      "count": 7076,
      "max": [
        0.9994764924049377,
        0.9986585974693298,
        0.9983957409858704
      ],
      "min": [
        -0.9995353817939758,
        -0.9982278943061829,
        -0.9978119730949402
      ],
      "type": "VEC3"
    },
    {
      "bufferView": 3,
      "componentType": 5126,
      "count": 7076,
      "max": [
        0.9993116855621338,
        0.9992179870605469,
        0.9996742606163025,
        1.0
      ],
      "min": [
        -0.9996515512466431,
        -0.9996041059494019,
        -0.9972841143608093,
        1.0
      ],
      "type": "VEC4"
    },
    {
      "bufferView": 1,
      "componentType": 5126,
      "count": 7076,
      "max": [
        1.0,
        1.0
      ],
      "min": [
        0.0,
        0.0
      ],
      "type": "VEC2"
    },
    {
      "bufferView": 0,
      "componentType": 5125,
      "count": 26256,
      "type": "SCALAR"
    },
    {
      "bufferView": 2,
      "byteOffset": 169824,
      "componentType": 5126,
      "count": 5158,
      "max": [
        541.3989868164063,
        225.3800048828125,
        119.97899627685547
      ],
      "min": [
        -559.7949829101563,
        -225.3800048828125,
        -104.37999725341797
      ],
      "type": "VEC3"
    },
    {
      "bufferView": 2,
      "byteOffset": 231720,
      "componentType": 5126,
      "count": 5158,
      "max": [
        1.0,
        1.0,
        1.0
      ],
      "min": [
        -1.0,
        -1.0,
        -1.0
      ],
      "type": "VEC3"
    },
    {
      "bufferView": 3,
      "byteOffset": 113216,
      "componentType": 5126,
      "count": 5158,
      "max": [
        1.0,
        1.0,
        1.0,
        1.0
      ],
      "min": [
        -1.0,
        -1.0,
        -1.0,
        -1.0
      ],
      "type": "VEC4"
    },
    {
      "bufferView": 1,
      "byteOffset": 56608,
      "componentType": 5126,
      "count": 5158,
      "max": [
        0.9933580160140991,
        0.9983900189399719
      ],
      "min": [
        0.011423599906265736,
        0.0036033999640494585
      ],
      "type": "VEC2"
    },
    {
      "bufferView": 0,
      "byteOffset": 105024,
      "componentType": 5125,
      "count": 14670,
      "type": "SCALAR"
    },
    {
      "bufferView": 2,
      "byteOffset": 293616,
      "componentType": 5126,
      "count": 655,
      "max": [
        505.1929931640625,
        175.8350067138672,
        31.433000564575195
      ],
      "min": [
        -31.23259925842285,
        10.878800392150879,
        2.8298699855804443
      ],
      "type": "VEC3"
    },
    {
      "bufferView": 2,
      "byteOffset": 301476,
      "componentType": 5126,
      "count": 655,
      "max": [
        0.9988983869552612,
        0.9999899864196777,
        1.0
      ],
      "min": [
        -0.9988940954208374,
        -0.9999726414680481,
        -1.0
      ],
      "type": "VEC3"
    },
    {
      "bufferView": 3,
      "byteOffset": 195744,
      "componentType": 5126,
      "count": 655,
      "max": [
        0.9950786232948303,
        0.9994118809700012,
        0.9999821186065674,
        1.0
      ],
      "min": [
        -0.8949135541915894,
        -0.9999750256538391,
        -0.9999972581863403,
        1.0
      ],
      "type": "VEC4"
    },
    {
      "bufferView": 1,
      "byteOffset": 97872,
      "componentType": 5126,
      "count": 655,
      "max": [
        1.0,
        1.0
      ],
      "min": [
        0.0,
        0.0
      ],
      "type": "VEC2"
    },
    {
      "bufferView": 0,
      "byteOffset": 163704,
      "componentType": 5125,
      "count": 2544,
      "type": "SCALAR"
    }
  ],
  "asset": {
    "extras": {
      "author": "Sk1ttle (https://sketchfab.com/Sk1ttle)",
      "license": "CC-BY-4.0 (http://creativecommons.org/licenses/by/4.0/)",
      "source": "https://sketchfab.com/3d-models/row-boat-1152ce68ca0e4e78bbd93a10c47056e5",
      "title": "Row Boat"
    },
    "generator": "Sketchfab-12.63.0",
    "version": "2.0"
  },
  "bufferViews": [
    {
      "buffer": 0,
      "byteLength": 173880,
      "name": "floatBufferViews",
      "target": 34963
    },
    {
      "buffer": 0,
      "byteLength": 103112,
      "byteOffset": 173880,
      "byteStride": 8,
      "name": "floatBufferViews",
      "target": 34962
    },
    {
      "buffer": 0,
      "byteLength": 309336,
      "byteOffset": 276992,
      "byteStride": 12,
      "name": "floatBufferViews",
      "target": 34962
    },
    {
      "buffer": 0,
      "byteLength": 206224,
      "byteOffset": 586328,
      "byteStride": 16,
      "name": "floatBufferViews",
      "target": 34962
    }
  ],
  "buffers": [
    {
      "byteLength": 792552,
      "uri": "scene.bin"
    }
  ],
  "images": [
    {
      "uri": "textures/Safety_Ring_baseColor.png"
    },
    {
      "uri": "textures/Safety_Ring_metallicRoughness.png"
    },
    {
      "uri": "textures/Safety_Ring_normal.png"
    },
    {
      "uri": "textures/Ship_baseColor.png"
    },
    {
      "uri": "textures/Ship_metallicRoughness.png"
    },
    {
      "uri": "textures/Ship_normal.png"
    },
    {
      "uri": "textures/paddle_baseColor.png"
    },
    {
      "uri": "textures/paddle_metallicRoughness.png"
    },
    {
      "uri": "textures/paddle_normal.png"
    }
  ],
  "materials": [
    {
      "doubleSided": true,
      "name": "Safety_Ring",
      "normalTexture": {
        "index": 2
      },
      "pbrMetallicRoughness": {
        "baseColorTexture": {
          "index": 0
        },
        "metallicFactor": 0.0,
        "metallicRoughnessTexture": {
          "index": 1
        }
      }
    },
    {
      "doubleSided": true,
      "name": "Ship",
      "normalTexture": {
        "index": 5
      },
      "pbrMetallicRoughness": {
        "baseColorTexture": {
          "index": 3
        },
        "metallicRoughnessTexture": {
          "index": 4
        }
      }
    },
    {
      "doubleSided": true,
      "name": "paddle",
      "normalTexture": {
        "index": 8
      },
      "pbrMetallicRoughness": {
        "baseColorTexture": {
          "index": 6
        },
        "metallicFactor": 0.0,
        "metallicRoughnessTexture": {
          "index": 7
        }
      }
    }
  ],
  "meshes": [
    {
      "name": "Object_0",
      "primitives": [
        {
          "attributes": {
            "NORMAL": 1,
            "POSITION": 0,
            "TANGENT": 2,
            "TEXCOORD_0": 3
          },
          "indices": 4,
          "material": 0,
          "mode": 4
        }
      ]
    },
    {
      "name": "Object_1",
      "primitives": [
        {
          "attributes": {
            "NORMAL": 6,
            "POSITION": 5,
            "TANGENT": 7,
            "TEXCOORD_0": 8
          },
          "indices": 9,
          "material": 1,
          "mode": 4
        }
      ]
    },
    {
      "name": "Object_2",
      "primitives": [
        {
          "attributes": {
            "NORMAL": 11,
            "POSITION": 10,
            "TANGENT": 12,
            "TEXCOORD_0": 13
          },
          "indices": 14,
          "material": 2,
          "mode": 4
        }
      ]
    }
  ],
  "nodes": [
    {
      "children": [
        1
      ],
      "matrix": [
        1.0,
        0.0,
        0.0,
        0.0,
        0.0,
        2.220446049250313e-16,
        -1.0,
        0.0,
        0.0,
        1.0,
        2.220446049250313e-16,
        0.0,
        0.0,
        0.0,
        0.0,
        1.0
      ],
      "name": "Sketchfab_model"
    },
    {
      "children": [
        2,
        3,
        4
      ],
      "name": "Boat.obj.cleaner.materialmerger.gles"
    },
    {
      "mesh": 0,
      "name": "Object_2"
    },
    {
      "mesh": 1,
      "name": "Object_3"
    },
    {
      "mesh": 2,
      "name": "Object_4"
    }
  ],
  "samplers": [
    {
      "magFilter": 9729,
      "minFilter": 9987,
      "wrapS": 10497,
      "wrapT": 10497
    }
  ],
  "scene": 0,
  "scenes": [
    {
      "name": "Sketchfab_Scene",
      "nodes": [
        0
      ]
    }
  ],
  "textures": [
    {
      "sampler": 0,
      "source": 0
    },
    {
      "sampler": 0,
      "source": 1
    },
    {
      "sampler": 0,
      "source": 2
    },
    {
      "sampler": 0,
      "source": 3
    },
    {
      "sampler": 0,
      "source": 4
    },
    {
      "sampler": 0,
      "source": 5
    },
    {
      "sampler": 0,
      "source": 6
    },
    {
      "sampler": 0,
      "source": 7
    },
    {
      "sampler": 0,
      "source": 8
    }
  ]
}
